<svg width="52" height="52" viewBox="0 0 52 52" fill="none" xmlns="http://www.w3.org/2000/svg">
    <circle cx="26" cy="26" r="26" fill="white"/>
    <path fill-rule="evenodd" clip-rule="evenodd" d="M37.2812 24C40.7891 26.62 43 30.4414 43 34.698C43 42.5969 35.3889 49 26 49C16.611 49 9 42.5969 9 34.698C9 30.4414 11.2111 26.62 14.7187 24C16.9187 25.6432 19.6288 26.8138 22.6239 27.3217L24.0322 30.6372H27.9684L29.3763 27.3215C32.3717 26.8137 35.0813 25.6432 37.2812 24ZM27.9343 31.7697H24.0664L22.4444 44.2601L26.0004 46.8591L29.5559 44.2601L27.9343 31.7697Z" fill="#514996"/>
    <path fill-rule="evenodd" clip-rule="evenodd" d="M26.0001 3C32.0752 3 37 7.70102 37 13.5C37 19.299 32.0752 24 26.0001 24C19.9248 24 15 19.299 15 13.5C15 7.70102 19.9248 3 26.0001 3Z" fill="#514996"/>
</svg>
